<svg xmlns="http://www.w3.org/2000/svg" xmlns:xlink="http://www.w3.org/1999/xlink" width="2000" zoomAndPan="magnify" viewBox="0 0 1500 1499.999933" height="2000" preserveAspectRatio="xMidYMid meet" version="1.0"><defs><filter x="0%" y="0%" width="100%" height="100%" id="5c35459aea"><feColorMatrix values="0 0 0 0 1 0 0 0 0 1 0 0 0 0 1 0 0 0 1 0" color-interpolation-filters="sRGB"/></filter><g/><mask id="58392a766e"><g filter="url(#5c35459aea)"><rect x="-150" width="1800" fill="#000000" y="-149.999993" height="1799.99992" fill-opacity="0.56"/></g></mask><clipPath id="9ef1d8154a"><path d="M 0 0.5 L 1500 0.5 L 1500 750.5 L 0 750.5 Z M 0 0.5 " clip-rule="nonzero"/></clipPath><clipPath id="69f99e9df3"><path d="M 0 0.5 L 1500 0.5 L 1500 750.5 L 0 750.5 Z M 0 0.5 " clip-rule="nonzero"/></clipPath><clipPath id="4d14c41380"><rect x="0" width="1500" y="0" height="751"/></clipPath><clipPath id="5297909656"><rect x="0" width="1500" y="0" height="751"/></clipPath><clipPath id="5ef95d0f17"><path d="M 111 35 L 179.839844 35 L 179.839844 83 L 111 83 Z M 111 35 " clip-rule="nonzero"/></clipPath><clipPath id="a464d2556b"><rect x="0" width="180" y="0" height="105"/></clipPath><mask id="09eb7e1971"><g filter="url(#5c35459aea)"><rect x="-150" width="1800" fill="#000000" y="-149.999993" height="1799.99992" fill-opacity="0.56"/></g></mask><clipPath id="858a611bf5"><path d="M 0 0 L 1500 0 L 1500 750 L 0 750 Z M 0 0 " clip-rule="nonzero"/></clipPath><clipPath id="07ed615d1e"><rect x="0" width="1500" y="0" height="750"/></clipPath><clipPath id="58fae8fa8b"><rect x="0" width="1500" y="0" height="750"/></clipPath></defs><rect x="-150" width="1800" fill="#ffffff" y="-149.999993" height="1799.99992" fill-opacity="1"/><rect x="-150" width="1800" fill="#ffffff" y="-149.999993" height="1799.99992" fill-opacity="1"/><g mask="url(#58392a766e)"><g transform="matrix(1, 0, 0, 1, 0, 748)"><g clip-path="url(#5297909656)"><g clip-path="url(#9ef1d8154a)"><g transform="matrix(1, 0, 0, 1, 0, 0.000000000000113687)"><g clip-path="url(#4d14c41380)"><g clip-path="url(#69f99e9df3)"><path fill="#544f4d" d="M 0 0.5 L 1514.648438 0.5 L 1514.648438 750.5 L 0 750.5 Z M 0 0.5 " fill-opacity="1" fill-rule="nonzero"/></g></g></g></g></g></g></g><g transform="matrix(1, 0, 0, 1, 1222, 843)"><g clip-path="url(#a464d2556b)"><g fill="#544f4d" fill-opacity="1"><g transform="translate(0.737169, 82.928123)"><g><path d="M 5.46875 -6.15625 C 5.46875 -8.15625 6.140625 -9.773438 7.484375 -11.015625 C 8.828125 -12.265625 10.515625 -12.890625 12.546875 -12.890625 C 14.597656 -12.890625 16.296875 -12.265625 17.640625 -11.015625 C 18.984375 -9.773438 19.65625 -8.15625 19.65625 -6.15625 C 19.65625 -4.195312 18.988281 -2.597656 17.65625 -1.359375 C 16.332031 -0.128906 14.628906 0.484375 12.546875 0.484375 C 10.484375 0.484375 8.785156 -0.128906 7.453125 -1.359375 C 6.128906 -2.597656 5.46875 -4.195312 5.46875 -6.15625 Z M 5.46875 -6.15625 "/></g></g></g><g fill="#544f4d" fill-opacity="1"><g transform="translate(21.22664, 82.928123)"><g><path d="M 24.34375 -9.25 C 26.65625 -9.25 28.535156 -9.882812 29.984375 -11.15625 C 31.429688 -12.425781 32.1875 -14.117188 32.25 -16.234375 L 44 -16.234375 C 43.96875 -13.046875 43.097656 -10.128906 41.390625 -7.484375 C 39.691406 -4.835938 37.359375 -2.78125 34.390625 -1.3125 C 31.421875 0.144531 28.144531 0.875 24.5625 0.875 C 17.851562 0.875 12.554688 -1.257812 8.671875 -5.53125 C 4.796875 -9.800781 2.859375 -15.695312 2.859375 -23.21875 L 2.859375 -24.046875 C 2.859375 -31.273438 4.78125 -37.046875 8.625 -41.359375 C 12.476562 -45.671875 17.757812 -47.828125 24.46875 -47.828125 C 30.34375 -47.828125 35.050781 -46.15625 38.59375 -42.8125 C 42.144531 -39.46875 43.945312 -35.019531 44 -29.46875 L 32.25 -29.46875 C 32.1875 -31.894531 31.429688 -33.867188 29.984375 -35.390625 C 28.535156 -36.910156 26.628906 -37.671875 24.265625 -37.671875 C 21.335938 -37.671875 19.128906 -36.601562 17.640625 -34.46875 C 16.148438 -32.34375 15.40625 -28.894531 15.40625 -24.125 L 15.40625 -22.828125 C 15.40625 -17.992188 16.140625 -14.519531 17.609375 -12.40625 C 19.085938 -10.300781 21.332031 -9.25 24.34375 -9.25 Z M 24.34375 -9.25 "/></g></g></g><g fill="#544f4d" fill-opacity="1"><g transform="translate(62.243791, 82.928123)"><g><path d="M 2.859375 -23.90625 C 2.859375 -28.5625 3.753906 -32.710938 5.546875 -36.359375 C 7.347656 -40.003906 9.929688 -42.828125 13.296875 -44.828125 C 16.671875 -46.828125 20.585938 -47.828125 25.046875 -47.828125 C 31.378906 -47.828125 36.546875 -45.882812 40.546875 -42 C 44.554688 -38.125 46.796875 -32.863281 47.265625 -26.21875 L 47.34375 -23 C 47.34375 -15.789062 45.332031 -10.007812 41.3125 -5.65625 C 37.289062 -1.300781 31.894531 0.875 25.125 0.875 C 18.351562 0.875 12.945312 -1.296875 8.90625 -5.640625 C 4.875 -9.984375 2.859375 -15.882812 2.859375 -23.34375 Z M 15.40625 -23 C 15.40625 -18.539062 16.242188 -15.132812 17.921875 -12.78125 C 19.597656 -10.425781 22 -9.25 25.125 -9.25 C 28.164062 -9.25 30.535156 -10.410156 32.234375 -12.734375 C 33.941406 -15.066406 34.796875 -18.789062 34.796875 -23.90625 C 34.796875 -28.28125 33.941406 -31.664062 32.234375 -34.0625 C 30.535156 -36.46875 28.140625 -37.671875 25.046875 -37.671875 C 21.972656 -37.671875 19.597656 -36.472656 17.921875 -34.078125 C 16.242188 -31.691406 15.40625 -28 15.40625 -23 Z M 15.40625 -23 "/></g></g></g><g clip-path="url(#5ef95d0f17)"><g fill="#544f4d" fill-opacity="1"><g transform="translate(107.166847, 82.928123)"><g><path d="M 16.578125 -46.953125 L 16.96875 -41.703125 C 20.289062 -45.785156 24.789062 -47.828125 30.46875 -47.828125 C 36.507812 -47.828125 40.660156 -45.4375 42.921875 -40.65625 C 46.210938 -45.4375 50.910156 -47.828125 57.015625 -47.828125 C 62.109375 -47.828125 65.898438 -46.34375 68.390625 -43.375 C 70.878906 -40.40625 72.125 -35.941406 72.125 -29.984375 L 72.125 0 L 59.546875 0 L 59.546875 -29.9375 C 59.546875 -32.601562 59.023438 -34.550781 57.984375 -35.78125 C 56.941406 -37.007812 55.101562 -37.625 52.46875 -37.625 C 48.707031 -37.625 46.101562 -35.832031 44.65625 -32.25 L 44.703125 0 L 32.15625 0 L 32.15625 -29.90625 C 32.15625 -32.625 31.617188 -34.585938 30.546875 -35.796875 C 29.472656 -37.015625 27.648438 -37.625 25.078125 -37.625 C 21.523438 -37.625 18.953125 -36.148438 17.359375 -33.203125 L 17.359375 0 L 4.8125 0 L 4.8125 -46.953125 Z M 16.578125 -46.953125 "/></g></g></g></g></g></g><g mask="url(#09eb7e1971)"><g transform="matrix(1, 0, 0, 1, 0, 0.000000000000112861)"><g clip-path="url(#58fae8fa8b)"><g transform="matrix(1, 0, 0, 1, 0, 0.000000000000112861)"><g clip-path="url(#07ed615d1e)"><g clip-path="url(#858a611bf5)"><rect x="-546" width="2592" fill="#ef5241" y="-545.999976" height="2591.999885" fill-opacity="1"/></g></g></g></g></g></g><g fill="#544f4d" fill-opacity="1"><g transform="translate(59.024062, 866.561617)"><g><path d="M 206.859375 -244.46875 L 206.859375 -83.453125 C 206.859375 -56.691406 198.488281 -35.53125 181.75 -19.96875 C 165.019531 -4.414062 142.160156 3.359375 113.171875 3.359375 C 84.628906 3.359375 61.960938 -4.195312 45.171875 -19.3125 C 28.378906 -34.425781 19.816406 -55.191406 19.484375 -81.609375 L 19.484375 -244.46875 L 69.84375 -244.46875 L 69.84375 -83.109375 C 69.84375 -67.109375 73.675781 -55.441406 81.34375 -48.109375 C 89.019531 -40.773438 99.628906 -37.109375 113.171875 -37.109375 C 141.492188 -37.109375 155.878906 -51.992188 156.328125 -81.765625 L 156.328125 -244.46875 Z M 206.859375 -244.46875 "/></g></g></g><g fill="#544f4d" fill-opacity="1"><g transform="translate(266.454799, 866.561617)"><g><path d="M 117.03125 -50.203125 C 117.03125 -56.140625 114.09375 -60.8125 108.21875 -64.21875 C 102.34375 -67.632812 92.910156 -70.6875 79.921875 -73.375 C 36.710938 -82.4375 15.109375 -100.796875 15.109375 -128.453125 C 15.109375 -144.566406 21.796875 -158.023438 35.171875 -168.828125 C 48.546875 -179.628906 66.035156 -185.03125 87.640625 -185.03125 C 110.703125 -185.03125 129.144531 -179.597656 142.96875 -168.734375 C 156.789062 -157.878906 163.703125 -143.78125 163.703125 -126.4375 L 115.1875 -126.4375 C 115.1875 -133.375 112.945312 -139.109375 108.46875 -143.640625 C 103.988281 -148.179688 96.992188 -150.453125 87.484375 -150.453125 C 79.304688 -150.453125 72.976562 -148.601562 68.5 -144.90625 C 64.03125 -141.207031 61.796875 -136.503906 61.796875 -130.796875 C 61.796875 -125.421875 64.335938 -121.082031 69.421875 -117.78125 C 74.515625 -114.476562 83.109375 -111.625 95.203125 -109.21875 C 107.296875 -106.8125 117.484375 -104.097656 125.765625 -101.078125 C 151.398438 -91.671875 164.21875 -75.382812 164.21875 -52.21875 C 164.21875 -35.65625 157.109375 -22.25 142.890625 -12 C 128.671875 -1.757812 110.3125 3.359375 87.8125 3.359375 C 72.59375 3.359375 59.078125 0.644531 47.265625 -4.78125 C 35.453125 -10.207031 26.1875 -17.648438 19.46875 -27.109375 C 12.757812 -36.578125 9.40625 -46.796875 9.40625 -57.765625 L 55.40625 -57.765625 C 55.851562 -49.140625 59.039062 -42.53125 64.96875 -37.9375 C 70.90625 -33.351562 78.859375 -31.0625 88.828125 -31.0625 C 98.117188 -31.0625 105.140625 -32.820312 109.890625 -36.34375 C 114.648438 -39.875 117.03125 -44.492188 117.03125 -50.203125 Z M 117.03125 -50.203125 "/></g></g></g><g fill="#544f4d" fill-opacity="1"><g transform="translate(424.351715, 866.561617)"><g><path d="M 76.734375 -226.34375 L 76.734375 -181.671875 L 107.796875 -181.671875 L 107.796875 -146.078125 L 76.734375 -146.078125 L 76.734375 -55.40625 C 76.734375 -48.6875 78.019531 -43.875 80.59375 -40.96875 C 83.164062 -38.0625 88.09375 -36.609375 95.375 -36.609375 C 100.75 -36.609375 105.503906 -37 109.640625 -37.78125 L 109.640625 -1 C 100.128906 1.90625 90.335938 3.359375 80.265625 3.359375 C 46.234375 3.359375 28.878906 -13.820312 28.203125 -48.1875 L 28.203125 -146.078125 L 1.671875 -146.078125 L 1.671875 -181.671875 L 28.203125 -181.671875 L 28.203125 -226.34375 Z M 76.734375 -226.34375 "/></g></g></g><g fill="#544f4d" fill-opacity="1"><g transform="translate(521.632576, 866.561617)"><g><path d="M 123.921875 0 C 121.679688 -4.363281 120.054688 -9.789062 119.046875 -16.28125 C 107.296875 -3.1875 92.015625 3.359375 73.203125 3.359375 C 55.410156 3.359375 40.664062 -1.785156 28.96875 -12.078125 C 17.269531 -22.378906 11.421875 -35.367188 11.421875 -51.046875 C 11.421875 -70.296875 18.554688 -85.066406 32.828125 -95.359375 C 47.097656 -105.660156 67.722656 -110.867188 94.703125 -110.984375 L 117.03125 -110.984375 L 117.03125 -121.390625 C 117.03125 -129.785156 114.875 -136.503906 110.5625 -141.546875 C 106.257812 -146.585938 99.460938 -149.109375 90.171875 -149.109375 C 81.992188 -149.109375 75.582031 -147.144531 70.9375 -143.21875 C 66.289062 -139.300781 63.96875 -133.929688 63.96875 -127.109375 L 15.453125 -127.109375 C 15.453125 -137.628906 18.695312 -147.363281 25.1875 -156.3125 C 31.675781 -165.269531 40.851562 -172.296875 52.71875 -177.390625 C 64.582031 -182.484375 77.90625 -185.03125 92.6875 -185.03125 C 115.070312 -185.03125 132.835938 -179.40625 145.984375 -168.15625 C 159.140625 -156.90625 165.71875 -141.09375 165.71875 -120.71875 L 165.71875 -41.984375 C 165.832031 -24.742188 168.238281 -11.703125 172.9375 -2.859375 L 172.9375 0 Z M 83.78125 -33.75 C 90.945312 -33.75 97.550781 -35.34375 103.59375 -38.53125 C 109.644531 -41.71875 114.125 -46 117.03125 -51.375 L 117.03125 -82.609375 L 98.890625 -82.609375 C 74.609375 -82.609375 61.679688 -74.210938 60.109375 -57.421875 L 59.9375 -54.5625 C 59.9375 -48.519531 62.0625 -43.539062 66.3125 -39.625 C 70.570312 -35.707031 76.394531 -33.75 83.78125 -33.75 Z M 83.78125 -33.75 "/></g></g></g><g fill="#ef5241" fill-opacity="1"><g transform="translate(633.570457, 865.124905)"><g><path d="M 106.3125 -134.578125 L 157.28125 -244.921875 L 212.46875 -244.921875 L 132.046875 -88.828125 L 132.046875 0 L 80.75 0 L 80.75 -88.828125 L 0.34375 -244.921875 L 55.6875 -244.921875 Z M 106.3125 -134.578125 "/></g></g></g><g fill="#ef5241" fill-opacity="1"><g transform="translate(822.423921, 865.124905)"><g><path d="M 11.109375 -92.6875 C 11.109375 -110.738281 14.582031 -126.832031 21.53125 -140.96875 C 28.488281 -155.101562 38.5 -166.035156 51.5625 -173.765625 C 64.625 -181.503906 79.789062 -185.375 97.0625 -185.375 C 121.625 -185.375 141.671875 -177.859375 157.203125 -162.828125 C 172.734375 -147.804688 181.394531 -127.398438 183.1875 -101.609375 L 183.53125 -89.15625 C 183.53125 -61.226562 175.734375 -38.828125 160.140625 -21.953125 C 144.554688 -5.078125 123.640625 3.359375 97.390625 3.359375 C 71.148438 3.359375 50.207031 -5.050781 34.5625 -21.875 C 18.925781 -38.695312 11.109375 -61.570312 11.109375 -90.5 Z M 59.71875 -89.15625 C 59.71875 -71.882812 62.96875 -58.675781 69.46875 -49.53125 C 75.976562 -40.394531 85.289062 -35.828125 97.40625 -35.828125 C 109.175781 -35.828125 118.367188 -40.34375 124.984375 -49.375 C 131.597656 -58.40625 134.90625 -72.84375 134.90625 -92.6875 C 134.90625 -109.625 131.597656 -122.742188 124.984375 -132.046875 C 118.367188 -141.359375 109.0625 -146.015625 97.0625 -146.015625 C 85.175781 -146.015625 75.976562 -141.390625 69.46875 -132.140625 C 62.96875 -122.890625 59.71875 -108.5625 59.71875 -89.15625 Z M 59.71875 -89.15625 "/></g></g></g><g fill="#ef5241" fill-opacity="1"><g transform="translate(993.109341, 865.124905)"><g><path d="M 69.984375 0 L 21.203125 0 L 21.203125 -258.390625 L 69.984375 -258.390625 Z M 69.984375 0 "/></g></g></g><g fill="#ef5241" fill-opacity="1"><g transform="translate(1060.337813, 865.124905)"><g><path d="M 11.109375 -92.359375 C 11.109375 -120.722656 17.46875 -143.316406 30.1875 -160.140625 C 42.914062 -176.960938 60.328125 -185.375 82.421875 -185.375 C 100.140625 -185.375 114.773438 -178.757812 126.328125 -165.53125 L 126.328125 -258.390625 L 175.125 -258.390625 L 175.125 0 L 131.21875 0 L 128.859375 -19.34375 C 116.742188 -4.207031 101.15625 3.359375 82.09375 3.359375 C 60.675781 3.359375 43.488281 -5.078125 30.53125 -21.953125 C 17.582031 -38.828125 11.109375 -62.296875 11.109375 -92.359375 Z M 59.71875 -88.828125 C 59.71875 -71.773438 62.6875 -58.707031 68.625 -49.625 C 74.570312 -40.539062 83.210938 -36 94.546875 -36 C 109.566406 -36 120.160156 -42.335938 126.328125 -55.015625 L 126.328125 -126.84375 C 120.273438 -139.507812 109.789062 -145.84375 94.875 -145.84375 C 71.4375 -145.84375 59.71875 -126.835938 59.71875 -88.828125 Z M 59.71875 -88.828125 "/></g></g></g><g fill="#ef5241" fill-opacity="1"><g transform="translate(1230.350356, 865.124905)"><g><path d="M 124.140625 0 C 121.898438 -4.375 120.273438 -9.8125 119.265625 -16.3125 C 107.492188 -3.195312 92.1875 3.359375 73.34375 3.359375 C 55.507812 3.359375 40.734375 -1.796875 29.015625 -12.109375 C 17.296875 -22.429688 11.4375 -35.441406 11.4375 -51.140625 C 11.4375 -70.429688 18.582031 -85.234375 32.875 -95.546875 C 47.175781 -105.867188 67.84375 -111.082031 94.875 -111.1875 L 117.25 -111.1875 L 117.25 -121.625 C 117.25 -130.03125 115.085938 -136.753906 110.765625 -141.796875 C 106.453125 -146.847656 99.640625 -149.375 90.328125 -149.375 C 82.140625 -149.375 75.71875 -147.410156 71.0625 -143.484375 C 66.414062 -139.566406 64.09375 -134.1875 64.09375 -127.34375 L 15.46875 -127.34375 C 15.46875 -137.882812 18.71875 -147.640625 25.21875 -156.609375 C 31.726562 -165.585938 40.925781 -172.625 52.8125 -177.71875 C 64.707031 -182.820312 78.054688 -185.375 92.859375 -185.375 C 115.285156 -185.375 133.085938 -179.738281 146.265625 -168.46875 C 159.441406 -157.195312 166.03125 -141.359375 166.03125 -120.953125 L 166.03125 -42.0625 C 166.144531 -24.789062 168.554688 -11.722656 173.265625 -2.859375 L 173.265625 0 Z M 83.9375 -33.8125 C 91.113281 -33.8125 97.726562 -35.410156 103.78125 -38.609375 C 109.84375 -41.804688 114.332031 -46.09375 117.25 -51.46875 L 117.25 -82.765625 L 99.078125 -82.765625 C 74.742188 -82.765625 61.789062 -74.351562 60.21875 -57.53125 L 60.0625 -54.671875 C 60.0625 -48.617188 62.191406 -43.628906 66.453125 -39.703125 C 70.710938 -35.773438 76.539062 -33.8125 83.9375 -33.8125 Z M 83.9375 -33.8125 "/></g></g></g></svg>